HIERARCHY
ROOT Hips
{
	OFFSET 0.000000 0.000000 0.000000
	CHANNELS 6 Xposition Yposition Zposition Zrotation Yrotation Xrotation 
	JOINT LHipJoint
	{
		OFFSET 0.000000 0.000000 0.000000
		CHANNELS 3 Zrotation Yrotation Xrotation
		JOINT LeftUpLeg
		{
			OFFSET 1.363060 -1.794630 0.839290
			CHANNELS 3 Zrotation Yrotation Xrotation
			JOINT LeftLeg
			{
				OFFSET 2.448110 -6.726130 0.000000
				CHANNELS 3 Zrotation Yrotation Xrotation
				JOINT LeftFoot
				{
					OFFSET 2.562200 -7.039590 0.000000
					CHANNELS 3 Zrotation Yrotation Xrotation
					JOINT LeftToeBase
					{
						OFFSET 0.157640 -0.433110 2.322550
						CHANNELS 3 Zrotation Yrotation Xrotation
						End Site
						{
							OFFSET 0.000000 0.000000 0.000000
						}
					}
				}
			}
		}
	}
	JOINT RHipJoint
	{
		OFFSET 0.000000 0.000000 0.000000
		CHANNELS 3 Zrotation Yrotation Xrotation
		JOINT RightUpLeg
		{
			OFFSET -1.305520 -1.794630 0.839290
			CHANNELS 3 Zrotation Yrotation Xrotation
			JOINT RightLeg
			{
				OFFSET -2.542530 -6.985550 0.000000
				CHANNELS 3 Zrotation Yrotation Xrotation
				JOINT RightFoot
				{
					OFFSET -2.568260 -7.056230 0.000000
					CHANNELS 3 Zrotation Yrotation Xrotation
					JOINT RightToeBase
					{
						OFFSET -0.164730 -0.452590 2.363150
						CHANNELS 3 Zrotation Yrotation Xrotation
						End Site
						{
							OFFSET 0.000000 0.000000 0.000000
						}
					}
				}
			}
		}
	}
	JOINT LowerBack
	{
		OFFSET 0.000000 0.000000 0.000000
		CHANNELS 3 Zrotation Yrotation Xrotation
		JOINT Spine
		{
			OFFSET 0.028270 2.035590 -0.193380
			CHANNELS 3 Zrotation Yrotation Xrotation
			JOINT Spine1
			{
				OFFSET 0.056720 2.048850 -0.042750
				CHANNELS 3 Zrotation Yrotation Xrotation
				JOINT Neck
				{
					OFFSET 0.000000 0.000000 0.000000
					CHANNELS 3 Zrotation Yrotation Xrotation
					JOINT Neck1
					{
						OFFSET -0.054170 1.746240 0.172020
						CHANNELS 3 Zrotation Yrotation Xrotation
						JOINT Head
						{
							OFFSET 0.104070 1.761360 -0.123970
							CHANNELS 3 Zrotation Yrotation Xrotation
							End Site
							{
								OFFSET 0.000000 0.000000 0.000000
							}
						}
					}
				}
				JOINT LeftShoulder
				{
					OFFSET 0.000000 0.000000 0.000000
					CHANNELS 3 Zrotation Yrotation Xrotation
					JOINT LeftArm
					{
						OFFSET 3.362410 1.200890 -0.311210
						CHANNELS 3 Zrotation Yrotation Xrotation
						JOINT LeftForeArm
						{
							OFFSET 4.983000 -0.000000 -0.000000
							CHANNELS 3 Zrotation Yrotation Xrotation
							JOINT LeftHand
							{
								OFFSET 3.483560 -0.000000 -0.000000
								CHANNELS 3 Zrotation Yrotation Xrotation
								JOINT LeftFingerBase
								{
									OFFSET 0.000000 0.000000 0.000000
									CHANNELS 3 Zrotation Yrotation Xrotation
									JOINT LeftHandIndex1
									{
										OFFSET 0.715260 -0.000000 -0.000000
										CHANNELS 3 Zrotation Yrotation Xrotation
										End Site
										{
											OFFSET 0.000000 0.000000 0.000000
										}
									}
								}
								JOINT LThumb
								{
									OFFSET 0.000000 0.000000 0.000000
									CHANNELS 3 Zrotation Yrotation Xrotation
									End Site
									{
										OFFSET 0.000000 0.000000 0.000000
									}
								}
							}
						}
					}
				}
				JOINT RightShoulder
				{
					OFFSET 0.000000 0.000000 0.000000
					CHANNELS 3 Zrotation Yrotation Xrotation
					JOINT RightArm
					{
						OFFSET -3.136600 1.374050 -0.404650
						CHANNELS 3 Zrotation Yrotation Xrotation
						JOINT RightForeArm
						{
							OFFSET -5.241900 -0.000000 -0.000000
							CHANNELS 3 Zrotation Yrotation Xrotation
							JOINT RightHand
							{
								OFFSET -3.444170 -0.000000 -0.000000
								CHANNELS 3 Zrotation Yrotation Xrotation
								JOINT RightFingerBase
								{
									OFFSET 0.000000 0.000000 0.000000
									CHANNELS 3 Zrotation Yrotation Xrotation
									JOINT RightHandIndex1
									{
										OFFSET -0.622530 -0.000000 -0.000000
										CHANNELS 3 Zrotation Yrotation Xrotation
										End Site
										{
											OFFSET 0.000000 0.000000 0.000000
										}
									}
								}
								JOINT RThumb
								{
									OFFSET 0.000000 0.000000 0.000000
									CHANNELS 3 Zrotation Yrotation Xrotation
									End Site
									{
										OFFSET 0.000000 0.000000 0.000000
									}
								}
							}
						}
					}
				}
			}
		}
	}
}
MOTION
Frames: 8
Frame Time: 0.008333
2.441875 15.463248 0.046682 1.801879 85.040575 41.657287 -10.629812 -1.572133 -1.696520 -14.514118 -3.352950 -74.943367 2.110880 6.509823 86.871546 4.770821 21.270818 -26.551705 -6.305801 -0.000001 -4.249400 7.938871 1.355611 -2.624715 14.940562 -2.889161 -59.040074 2.093257 -4.477184 60.534101 -3.651786 -6.381720 -34.240554 3.935200 0.000000 -28.761500 7.932230 0.433452 7.183416 1.427742 0.284019 -1.276510 -3.343050 0.276640 -0.137268 6.729452 -10.893211 -6.863324 -0.095838 0.012304 -0.292233 0.000000 0.000000 0.000000 13.132721 10.586507 2.138281 -69.947398 19.685655 26.365995 0.076133 -89.312284 0.037448 -9.817915 7.092043 -0.612987 0.180369 0.094218 0.000000 0.000000 0.000000 0.000000 0.000000 0.000000 0.000000 -5.056086 -4.144468 -0.825396 65.098617 8.161832 2.735591 179.717033 77.393803 179.937564 -8.242166 1.830571 -0.169320 0.164857 -0.484821 0.000000 0.000000 0.000000 0.000000 0.000000 0.000000 0.000000 
2.627213 15.497683 0.055874 1.747968 85.026789 41.892082 -10.291797 -1.704365 -1.541024 -14.692318 -4.209400 -77.353581 1.939442 6.483171 85.323059 4.840799 20.996283 -26.520621 -6.166000 0.000001 -4.804300 7.962660 1.332749 -2.828642 14.784205 -3.085660 -57.741293 2.216247 -4.336675 59.297118 -3.685386 -6.451402 -34.386701 3.996400 0.000000 -29.415001 7.348246 0.547839 7.372588 1.323111 0.435991 -1.228116 -3.252023 0.428074 -0.114585 6.544465 -10.902028 -6.679518 0.009416 0.017499 -0.247919 0.000000 0.000000 0.000000 12.993310 10.854122 2.118057 -69.683697 20.633603 27.307891 0.080425 -89.479560 0.037058 -9.977054 6.886104 -0.605135 0.186037 0.090745 0.000000 0.000000 0.000000 0.000000 0.000000 0.000000 0.000000 -5.690820 -4.139080 -0.903800 64.339295 8.516196 3.334960 179.663978 76.180948 179.942605 -7.558584 2.007307 -0.167542 0.154551 -0.490850 0.000000 0.000000 0.000000 0.000000 0.000000 0.000000 0.000000 
2.817154 15.528945 0.065157 1.371890 85.039203 41.782165 -9.943649 -1.796558 -1.366789 -14.797089 -5.044989 -79.602655 1.723536 6.428089 83.439934 4.887414 20.575715 -26.394922 -5.950200 -0.000001 -5.386600 8.005221 1.304578 -3.037304 14.648632 -3.312792 -56.384397 2.345495 -4.196091 58.011820 -3.710470 -6.490889 -34.518516 4.044900 -0.000000 -30.130000 6.771535 0.661359 7.547335 1.217855 0.586751 -1.183375 -3.169552 0.578557 -0.091554 6.391711 -10.943477 -6.531201 0.109010 0.022814 -0.213011 0.000000 0.000000 0.000000 12.892687 11.161931 2.089419 -69.416923 21.612987 28.182884 0.088895 -89.753279 0.036506 -10.043448 6.682110 -0.591277 0.190744 0.088049 0.000000 0.000000 0.000000 0.000000 0.000000 0.000000 0.000000 -6.269015 -4.159993 -0.968146 63.529018 8.777453 3.823978 179.605363 74.913088 179.947425 -6.911363 2.174104 -0.163865 0.144699 -0.496813 0.000000 0.000000 0.000000 0.000000 0.000000 0.000000 0.000000 
3.012069 15.556702 0.074519 0.745963 85.081459 41.404438 -9.594402 -1.849102 -1.170567 -14.840141 -5.853569 -81.693563 1.464528 6.346681 81.233699 4.903255 19.976347 -26.177230 -5.655500 0.000000 -5.992300 8.063016 1.268228 -3.246939 14.532958 -3.571738 -54.981752 2.479690 -4.055580 56.683067 -3.724304 -6.495547 -34.616638 4.074900 0.000000 -30.914500 6.201053 0.772905 7.697486 1.111478 0.734826 -1.145034 -3.096178 0.726669 -0.068669 6.274430 -11.012456 -6.419617 0.202851 0.028272 -0.187533 0.000000 0.000000 0.000000 12.838194 11.509733 2.053756 -69.156999 22.615557 28.989229 -179.899249 -89.882514 -179.964201 -10.021424 6.486569 -0.572916 0.194365 0.085931 0.000000 0.000000 0.000000 0.000000 0.000000 0.000000 0.000000 -6.788228 -4.202230 -1.019790 62.679376 8.935141 4.199599 179.543524 73.600982 179.951695 -6.338753 2.317837 -0.158787 0.136046 -0.502545 0.000000 0.000000 0.000000 0.000000 0.000000 0.000000 0.000000 
3.212338 15.580734 0.083875 -0.086625 85.157125 40.807492 -9.251998 -1.862272 -0.948902 -14.834286 -6.631880 -83.626425 1.163156 6.240238 78.712247 4.882165 19.176957 -25.870754 -5.285000 0.000000 -6.765200 8.133226 1.221449 -3.454369 14.436940 -3.862123 -53.545148 2.617491 -3.915357 55.316874 -3.725171 -6.464232 -34.665707 4.083100 0.000000 -31.753000 5.639502 0.881111 7.813866 1.004583 0.878497 -1.115582 -3.031629 0.870704 -0.046385 6.192611 -11.104492 -6.345062 0.291490 0.033927 -0.171303 0.000000 0.000000 0.000000 12.831645 11.895148 2.012733 -68.912166 23.633516 29.724283 -179.884767 -89.442044 -179.965031 -9.924825 6.299780 -0.551250 0.196959 0.084290 0.000000 0.000000 0.000000 0.000000 0.000000 0.000000 0.000000 -7.252109 -4.261390 -1.060455 61.806447 8.982435 4.465439 179.481301 72.259161 179.955182 -5.868661 2.427969 -0.153107 0.129180 -0.507880 0.000000 0.000000 0.000000 0.000000 0.000000 0.000000 0.000000 
3.418161 15.600911 0.093094 -1.094086 85.268991 40.027104 -8.923219 -1.836515 -0.698488 -14.793519 -7.380275 -85.397175 0.817581 6.109359 75.881221 4.821343 18.167242 -25.515033 -4.860000 0.000000 -7.610800 8.213498 1.162872 -3.657400 14.358674 -4.183172 -52.084234 2.757149 -3.775640 53.919301 -3.712257 -6.400967 -34.650706 4.067900 0.000000 -32.669800 5.090119 0.984033 7.889123 0.898045 1.015555 -1.097095 -2.975274 1.008453 -0.025118 6.144485 -11.213820 -6.306773 0.375457 0.039813 -0.163888 0.000000 0.000000 0.000000 12.870799 12.314752 1.968146 -68.688970 24.660247 30.385045 -179.868241 -88.935898 -179.965941 -9.772763 6.118410 -0.527280 0.198716 0.083086 0.000000 0.000000 0.000000 0.000000 0.000000 0.000000 0.000000 -7.666045 -4.331986 -1.092042 60.926851 8.916743 4.630509 179.421688 70.903561 179.957739 -5.517669 2.494444 -0.147424 0.124511 -0.512580 -0.000000 0.000000 0.000000 0.000000 0.000000 0.000000 0.000000 
3.629695 15.617185 0.102055 -2.261062 85.418519 39.082399 -8.613946 -1.772971 -0.415796 -14.728848 -8.101881 -86.994200 0.425362 5.951942 72.737988 4.718248 16.947215 -25.131983 -4.398199 0.000000 -8.687799 8.301873 1.091926 -3.855074 14.295969 -4.532451 -50.604861 2.896884 -3.636415 52.496213 -3.686376 -6.314574 -34.564197 4.031100 -0.000000 -33.661300 4.556458 1.079561 7.917956 0.792922 1.143691 -1.090926 -2.926245 1.137584 -0.004579 6.126798 -11.336294 -6.303470 0.455506 0.045974 -0.164803 0.000000 0.000000 0.000000 12.950950 12.765124 1.921850 -68.492402 25.687087 30.970088 -179.850159 -88.374445 -179.966878 -9.588833 5.935398 -0.502007 0.199942 0.082351 0.000000 0.000000 0.000000 0.000000 0.000000 0.000000 0.000000 -8.037486 -4.410512 -1.116558 60.058756 8.741889 4.709083 179.367440 69.549357 179.959329 -5.288928 2.510686 -0.142337 0.122187 -0.516421 -0.000000 0.000000 0.000000 0.000000 0.000000 0.000000 0.000000 
3.847048 15.629606 0.110534 -3.596552 85.605183 37.965350 -8.328665 -1.674260 -0.097870 -14.646942 -8.800573 -88.396610 -0.016898 5.762754 69.274798 4.571953 15.527835 -24.745680 -3.919600 0.000000 -10.056700 8.397040 1.009186 -4.047855 14.244416 -4.906073 -49.107001 3.034686 -3.497413 51.052670 -3.649543 -6.217947 -34.404163 3.977199 -0.000000 -34.735500 4.042087 1.165586 7.898185 0.690308 1.260672 -1.097559 -2.883660 1.255828 0.015863 6.135035 -11.468375 -6.332758 0.532370 0.052432 -0.173337 0.000000 0.000000 0.000000 13.064766 13.242222 1.875474 -68.326755 26.705723 31.477614 -179.830813 -87.765886 -179.967784 -9.398635 5.742027 -0.476033 0.201039 0.082161 -0.000000 0.000000 0.000000 0.000000 0.000000 0.000000 0.000000 -8.375050 -4.494435 -1.136062 59.221399 8.468345 4.719009 179.320757 68.210766 179.960021 -5.172284 2.474379 -0.137745 0.122061 -0.519218 -0.000000 0.000000 0.000000 0.000000 0.000000 0.000000 0.000000 
